:SAMPLES-PER-SECOND 30
:FRAME-RANGE 1-744
:FULLY-SPECIFIED
:DEGREES
535
root  -96.5015 37.9261 73.165 -175.856 -38.8046 175.054
RightUpLeg  -24.9677 -3.22856 -9.84588
RightLeg  22.1705 -5.28024 -2.56821
RightFoot  -3.91575 -0.230117 3.13372
RightToes  -5.28216e-011 1.2921e-014 -6.02303e-014
Spine  -5.44224 -4.49021 -5.55348
Spine1  7.73935 -4.02422 -1.63173
HEad  4.44172 -31.4135 -1.90841
LeftShoulder1  1.38882 -1.68604 -21.7223
LeftArm  1.24458 -4.01327 -46.7825
LeftForeArm  32.9296 1.46318 -13.5091
LeftHand  -0.036924 4.86848 2.97352
RightShoulder  0.871147 -0.728395 27.6662
RightArm  -36.628 -16.1062 51.3651
RightForeArm  66.4232 -4.60049 -1.43853
RightHand  0.183419 -7.04032 -14.3113
LeftUpLeg  -4.06331 3.12469 -2.62005
LeftLeg  15.2505 -4.2551 -1.00463
LeftFoot  -13.178 0.0638054 -0.951201
LeftToes  -9.4837e-011 -7.11147e-011 -1.07582e-011
536
root  -97.0075 37.921 72.1811 -175.198 -38.8514 175.15
RightUpLeg  -23.0325 -3.91575 -10.0644
RightLeg  8.56904 -3.93984 -1.33363
RightFoot  -3.66085 -0.279946 3.79669
RightToes  -5.28216e-011 1.2921e-014 -6.02303e-014
Spine  -6.14062 -4.75498 -5.04498
Spine1  8.02603 -4.23544 -1.3767
HEad  3.51153 -32.1905 -1.40063
LeftShoulder1  1.39977 -1.78552 -21.3729
LeftArm  0.537261 -4.60725 -47.2225
LeftForeArm  33.0769 2.11493 -13.3467
LeftHand  -0.0360041 4.95567 3.06806
RightShoulder  0.896869 -0.639186 27.5032
RightArm  -36.9149 -16.3463 51.7174
RightForeArm  66.002 -4.59819 -1.54199
RightHand  0.197861 -7.16894 -14.2454
LeftUpLeg  -2.36063 3.28622 -2.08182
LeftLeg  13.9949 -4.51354 -0.932538
LeftFoot  -14.381 0.0621385 -0.908978
LeftToes  -9.4837e-011 -7.11147e-011 -1.07582e-011
537
root  -97.512 37.809 71.088 -174.93 -38.9469 175.172
RightUpLeg  -21.5453 -5.89594 -9.70573
RightLeg  -0.815372 -0.377177 -0.867693
RightFoot  -5.42442 -0.22361 3.61062
RightToes  -5.28216e-011 1.2921e-014 -6.02303e-014
Spine  -6.91073 -4.82897 -4.49485
Spine1  8.71819 -4.27534 -1.41269
HEad  2.35894 -32.5984 -0.620618
LeftShoulder1  1.4111 -1.87241 -21.1148
LeftArm  0.173059 -4.94828 -47.6181
LeftForeArm  32.9244 2.4678 -13.2549
LeftHand  -0.0359015 4.94112 2.94079
RightShoulder  0.919495 -0.573567 27.5318
RightArm  -37.0133 -16.3566 51.8987
RightForeArm  66.2835 -4.57942 -1.59045
RightHand  0.149252 -6.81725 -13.7838
LeftUpLeg  -0.450158 3.15777 -1.65832
LeftLeg  13.5396 -4.76891 -0.529477
LeftFoot  -16.0536 0.0192076 -1.87233
LeftToes  -9.4837e-011 -7.11147e-011 -1.07582e-011
538
root  -97.999 37.4963 69.8643 -175.124 -38.5742 175.114
RightUpLeg  -21.4952 -5.39016 -9.4807
RightLeg  -1.47892 -1.27457 -1.14224
RightFoot  -9.35239 -0.191777 7.37185
RightToes  -5.28216e-011 1.2921e-014 -6.02303e-014
Spine  -6.83746 -4.53452 -4.36784
Spine1  8.57491 -3.97768 -1.48444
HEad  1.69404 -33.4874 -0.663765
LeftShoulder1  1.46844 -2.00555 -21.5381
LeftArm  0.0859489 -4.992 -47.594
LeftForeArm  32.7562 2.68494 -13.2501
LeftHand  -0.0349803 4.96195 3.00497
RightShoulder  0.894147 -0.67433 27.8601
RightArm  -36.8681 -15.9033 51.3942
RightForeArm  66.9749 -4.54684 -1.63026
RightHand  0.147199 -6.78744 -13.889
LeftUpLeg  1.17842 2.94417 -1.34968
LeftLeg  15.2381 -4.15355 0.170993
LeftFoot  -18.7472 -0.0393065 -2.34394
LeftToes  -9.4837e-011 -7.11147e-011 -1.07582e-011
539
root  -98.4382 37.2974 68.6498 -176.512 -37.8354 176.383
RightUpLeg  -23.0511 -5.59254 -8.04671
RightLeg  5.13908 -2.03887 -0.198155
RightFoot  -6.51378 -0.20235 3.74746
RightToes  -5.28216e-011 1.2921e-014 -6.02303e-014
Spine  -6.50335 -4.13025 -2.77645
Spine1  9.01142 -3.78963 -1.40591
HEad  1.42293 -33.6314 -0.956692
LeftShoulder1  1.43118 -1.82803 -21.7824
LeftArm  -0.289662 -4.11291 -47.6245
LeftForeArm  32.5157 2.29199 -13.0963
LeftHand  -0.0348752 4.99435 3.19975
RightShoulder  1.006 -0.344801 27.8901
RightArm  -36.6741 -14.5032 51.2076
RightForeArm  67.6144 -4.50333 -1.74318
RightHand  0.187558 -7.04523 -14.537
LeftUpLeg  3.4638 1.80402 -0.168091
LeftLeg  16.2787 -2.32081 1.22917
LeftFoot  -20.4864 -0.161732 -3.55743
LeftToes  -9.4837e-011 -7.11147e-011 -1.07582e-011
540
root  -98.9017 37.2602 67.4172 -178.371 -37.7523 178.504
RightUpLeg  -22.9429 -3.10765 -6.28898
RightLeg  8.6233 -4.56783 -1.41801
RightFoot  -0.371383 -0.352839 3.64587
RightToes  -5.28216e-011 1.2921e-014 -6.02303e-014
Spine  -7.06029 -4.03826 -0.35209
Spine1  10.2016 -4.09079 -0.728675
HEad  2.3796 -33.5661 -1.90126
LeftShoulder1  1.41733 -1.77396 -21.8078
LeftArm  -0.386747 -2.22823 -47.6759
LeftForeArm  32.038 1.7139 -13.0475
LeftHand  -0.0393314 4.79507 3.18996
RightShoulder  1.0481 -0.204899 27.7203
RightArm  -36.5737 -12.675 51.2131
RightForeArm  68.5731 -4.43015 -1.9561
RightHand  0.197698 -7.13833 -14.4583
LeftUpLeg  6.37488 -1.81055 1.33114
LeftLeg  15.9461 0.90366 2.25748
LeftFoot  -21.0036 -0.429849 -6.56959
LeftToes  -9.4837e-011 -7.11147e-011 -1.07582e-011
541
root  -99.3188 37.1869 66.0618 179.66 -38.0118 -179.671
RightUpLeg  -23.0544 -2.58572 -4.45944
RightLeg  13.7147 -4.42478 -1.50881
RightFoot  2.8772 -0.668307 5.5115
RightToes  -5.28216e-011 1.2921e-014 -6.02303e-014
Spine  -6.79275 -4.05293 1.06205
Spine1  10.0882 -4.41421 0.0553865
HEad  3.85137 -33.83 -2.99016
LeftShoulder1  1.40317 -1.68435 -22.0383
LeftArm  -0.306395 -0.0923892 -47.696
LeftForeArm  31.8413 1.47941 -13.1079
LeftHand  -0.0409908 4.77572 3.474
RightShoulder  0.968898 -0.485241 28.2682
RightArm  -36.0381 -10.788 50.3562
RightForeArm  68.7326 -4.42864 -1.92966
RightHand  0.191691 -7.07169 -14.5923
LeftUpLeg  8.09446 -4.95717 3.55471
LeftLeg  18.7917 2.8918 1.58617
LeftFoot  -21.0958 -0.660586 -9.20625
LeftToes  -9.4837e-011 -7.11147e-011 -1.07582e-011
542
root  -99.7146 37.1043 64.6156 178.094 -37.266 -178.405
RightUpLeg  -23.0198 -4.43067 -2.13341
RightLeg  18.958 -1.68928 -0.855523
RightFoot  2.37084 -0.613368 5.23195
RightToes  -5.28216e-011 1.2921e-014 -6.02303e-014
Spine  -6.68929 -3.74992 1.6569
Spine1  9.82107 -4.22113 0.36079
HEad  5.07636 -34.0099 -3.62091
LeftShoulder1  1.35219 -1.42447 -22.5327
LeftArm  -1.15135 2.31292 -47.7983
LeftForeArm  32.0013 1.50382 -12.8943
LeftHand  -0.0380249 4.97393 4.2439
RightShoulder  0.961263 -0.576371 29.1584
RightArm  -35.0406 -8.109 49.2303
RightForeArm  68.5227 -4.47871 -1.68649
RightHand  0.22587 -7.25814 -15.2259
LeftUpLeg  8.88355 -6.4931 4.98835
LeftLeg  23.6801 3.34561 1.94677
LeftFoot  -19.6698 -0.916834 -14.1455
LeftToes  -9.4837e-011 -7.11147e-011 -1.07582e-011
543
root  -99.9836 37.1718 63.315 177.111 -36.895 -177.039
RightUpLeg  -22.136 -3.62806 0.0063696
RightLeg  21.1257 -2.24815 -1.17335
RightFoot  1.70885 -0.263052 2.40077
RightToes  -5.28216e-011 1.2921e-014 -6.02303e-014
Spine  -7.23714 -3.6639 2.4439
Spine1  10.2127 -4.236 1.10778
HEad  6.35406 -33.934 -3.50704
LeftShoulder1  1.38928 -1.68713 -21.7258
LeftArm  -3.06683 5.59486 -48.8436
LeftForeArm  32.1772 1.87579 -12.3158
LeftHand  -0.043996 4.56037 3.09183
RightShoulder  1.10249 -0.191333 29.3794
RightArm  -34.7393 -5.15141 49.5629
RightForeArm  69.5841 -4.41302 -1.83078
RightHand  0.232841 -7.25087 -15.6758
LeftUpLeg  7.06101 -4.61218 8.20645
LeftLeg  30.3194 0.648522 0.761357
LeftFoot  -15.3651 -0.532 -17.6287
LeftToes  -9.4837e-011 -7.11147e-011 -1.07582e-011
544
root  -100.215 37.2649 62.1529 176.108 -37.5507 -175.64
RightUpLeg  -20.5769 -1.84823 1.72121
RightLeg  22.1743 -4.64779 -2.30062
RightFoot  0.0930203 -0.116224 1.1667
RightToes  -5.28216e-011 1.2921e-014 -6.02303e-014
Spine  -7.28005 -3.98402 3.30835
Spine1  10.3498 -4.55161 1.91329
HEad  7.76301 -35.207 -3.30106
LeftShoulder1  1.46516 -2.10289 -20.9432
LeftArm  -3.83306 8.37773 -49.5898
LeftForeArm  31.4984 2.5319 -12.1765
LeftHand  -0.0463301 4.4108 2.97226
RightShoulder  1.10556 -0.165698 29.1841
RightArm  -34.1802 -2.33343 50.8251
RightForeArm  70.106 -4.41381 -1.70927
RightHand  0.272377 -7.51938 -15.8649
LeftUpLeg  2.97541 -4.12226 10.9977
LeftLeg  39.2438 -0.277451 0.136039
LeftFoot  -8.15437 0.57967 -18.9403
LeftToes  -9.4837e-011 -7.11147e-011 -1.07582e-011
545
root  -100.461 37.341 61.0799 174.877 -38.608 -174.385
RightUpLeg  -18.6138 -2.84224 3.38129
RightLeg  22.8428 -4.98626 -2.52588
RightFoot  -1.97534 -0.0375261 0.293855
RightToes  -5.28216e-011 1.2921e-014 -6.02303e-014
Spine  -6.61384 -4.23241 4.18919
Spine1  10.0512 -4.75519 2.30621
HEad  8.00165 -36.3173 -2.43642
LeftShoulder1  1.52364 -2.3215 -20.9303
LeftArm  -4.52737 9.84742 -49.8896
LeftForeArm  32.6633 3.60901 -12.0277
LeftHand  -0.0390384 4.53823 2.2412
RightShoulder  1.07743 -0.194091 28.5791
RightArm  -32.4139 0.0412098 52.1493
RightForeArm  68.9466 -4.63293 -0.697327
RightHand  0.243914 -7.31789 -15.794
LeftUpLeg  -2.16278 -4.28269 12.8983
LeftLeg  48.6113 0.203881 0.683202
LeftFoot  1.01447 1.6221 -14.973
LeftToes  -9.4837e-011 -7.11147e-011 -1.07582e-011
546
root  -100.741 37.433 60.0991 174.243 -39.0786 -174.062
RightUpLeg  -16.7057 -4.49865 4.21914
RightLeg  23.276 -4.18358 -2.19762
RightFoot  -3.91227 0.0159901 -0.655273
RightToes  -5.28216e-011 1.2921e-014 -6.02303e-014
Spine  -5.9719 -4.02176 5.09488
Spine1  9.82162 -4.27795 1.81882
HEad  8.15634 -38.8808 -1.47793
LeftShoulder1  1.52213 -2.25951 -21.223
LeftArm  -4.62637 10.55 -49.8262
LeftForeArm  33.6828 4.6312 -12.045
LeftHand  -0.0352528 4.71902 1.9862
RightShoulder  1.16428 0.110341 28.0386
RightArm  -30.1389 2.03979 52.9978
RightForeArm  66.8957 -4.94269 0.660111
RightHand  0.168099 -6.7612 -15.7071
LeftUpLeg  -6.81768 -3.40771 13.4843
LeftLeg  55.8348 1.43254 2.78201
LeftFoot  6.76701 1.34721 -8.70166
LeftToes  -9.4837e-011 -7.11147e-011 -1.07582e-011
547
root  -101.059 37.5692 59.1756 174.316 -38.6324 -174.463
RightUpLeg  -14.799 -4.5439 4.39567
RightLeg  23.0865 -3.82525 -1.95783
RightFoot  -5.49092 0.0141746 -1.00586
RightToes  -5.28216e-011 1.2921e-014 -6.02303e-014
Spine  -5.77138 -3.38316 6.16078
Spine1  9.77176 -3.24592 0.661718
HEad  8.00452 -41.3051 -0.437261
LeftShoulder1  1.43731 -1.90856 -21.4496
LeftArm  -4.9126 11.4973 -49.8487
LeftForeArm  33.8744 5.17861 -11.9956
LeftHand  -0.0370331 4.74553 2.16477
RightShoulder  1.3416 0.725257 27.2452
RightArm  -28.4098 4.43719 53.8668
RightForeArm  65.4296 -5.14468 1.53058
RightHand  0.111644 -6.29632 -16.3113
LeftUpLeg  -10.647 -2.58784 12.7572
LeftLeg  60.648 3.29096 6.9007
LeftFoot  3.85181 1.10308 -8.43649
LeftToes  -9.4837e-011 -7.11147e-011 -1.07582e-011
